<svg width="0" height="0" class="hidden">
  <symbol fill="none" xmlns="http://www.w3.org/2000/svg" viewBox="0 0 19 18" id="login">
    <path d="M11.75 2.25006H12.65C13.9101 2.25006 14.5402 2.25006 15.0215 2.4953C15.4448 2.71101 15.789 3.05522 16.0048 3.47858C16.25 3.95988 16.25 4.58995 16.25 5.85006V12.1501C16.25 13.4102 16.25 14.0402 16.0048 14.5215C15.789 14.9449 15.4448 15.2891 15.0215 15.5048C14.5402 15.7501 13.9101 15.7501 12.65 15.7501H11.75M8 5.25006L11.75 9.00006M11.75 9.00006L8 12.7501M11.75 9.00006L2.75 9.00006" stroke="" stroke-width="1.5" stroke-linecap="round" stroke-linejoin="round"></path>
  </symbol>
  <symbol xmlns="http://www.w3.org/2000/svg" viewBox="0 0 50 50" id="arrow-next">
    <g clip-path="url(#clip0_182_6723)">
      <path d="M33.865 23.1097L35.7445 24.3877L0 24.3887L0 25.3887L35.5205 25.3877L33.75 26.4052L34.248 27.2722L38.3225 24.9312L34.4275 22.2827L33.865 23.1097Z" ></path>
    </g>
  </symbol>
  <symbol xmlns="http://www.w3.org/2000/svg" viewBox="0 0 62 61" id="arrow-prev">
    <path d="M15.1847 32.5346L12.8917 30.9754L56.5 30.9742V29.7542L13.165 29.7554L15.325 28.514L14.7174 27.4563L9.74654 30.3123L14.4984 33.5435L15.1847 32.5346Z" ></path>
  </symbol>
  <symbol fill="" xmlns="http://www.w3.org/2000/svg" viewBox="0 0 14 14" id="star">
    <path d="M10.8241 14C10.6578 14 10.4923 13.9466 10.3498 13.8403L7.00009 11.3293L3.65039 13.8403C3.51161 13.9447 3.34483 14.0005 3.17386 13.9999C3.00289 13.9993 2.83648 13.9422 2.69839 13.8369C2.56018 13.7321 2.45708 13.5845 2.40378 13.4149C2.35048 13.2454 2.34969 13.0626 2.40151 12.8925L3.6508 8.67793L0.331167 6.23275C0.193589 6.12662 0.0914162 5.97796 0.0390997 5.8078C-0.0132167 5.63764 -0.0130282 5.45459 0.0396388 5.28455C0.0927213 5.11492 0.195461 4.96702 0.333337 4.86175C0.471213 4.75648 0.637253 4.69916 0.807989 4.6979L4.91945 4.69144L6.22844 0.58142C6.28246 0.412106 6.38607 0.264848 6.5246 0.160499C6.66312 0.0561503 6.82954 0 7.00029 0C7.17104 0 7.33746 0.0561503 7.47599 0.160499C7.61451 0.264848 7.71812 0.412106 7.77214 0.58142L9.0589 4.69144L13.1914 4.6979C13.3623 4.69891 13.5286 4.75619 13.6666 4.86162C13.8046 4.96705 13.9073 5.11526 13.9602 5.2852C14.013 5.45513 14.0133 5.63815 13.9609 5.80825C13.9086 5.97835 13.8063 6.12689 13.6686 6.23275L10.349 8.67793L11.5982 12.8925C11.6502 13.0625 11.6495 13.2453 11.5963 13.4149C11.543 13.5844 11.44 13.7321 11.3018 13.8369C11.1633 13.9431 10.9959 14.0002 10.8241 14V14Z" fill=""></path>
  </symbol>
  <symbol fill="none" xmlns="http://www.w3.org/2000/svg" viewBox="0 0 24 24" id="success">
    <path d="M10.6 13.8L8.425 11.625C8.24167 11.4417 8.01267 11.3543 7.738 11.363C7.46267 11.371 7.23333 11.4667 7.05 11.65C6.86667 11.8333 6.775 12.0667 6.775 12.35C6.775 12.6333 6.86667 12.8667 7.05 13.05L9.9 15.9C10.0833 16.0833 10.3167 16.175 10.6 16.175C10.8833 16.175 11.1167 16.0833 11.3 15.9L16.975 10.225C17.1583 10.0417 17.246 9.81233 17.238 9.537C17.2293 9.26233 17.1333 9.03333 16.95 8.85C16.7667 8.66667 16.5333 8.575 16.25 8.575C15.9667 8.575 15.7333 8.66667 15.55 8.85L10.6 13.8ZM12 22C10.6167 22 9.31667 21.7373 8.1 21.212C6.88333 20.6873 5.825 19.975 4.925 19.075C4.025 18.175 3.31267 17.1167 2.788 15.9C2.26267 14.6833 2 13.3833 2 12C2 10.6167 2.26267 9.31667 2.788 8.1C3.31267 6.88333 4.025 5.825 4.925 4.925C5.825 4.025 6.88333 3.31233 8.1 2.787C9.31667 2.26233 10.6167 2 12 2C13.3833 2 14.6833 2.26233 15.9 2.787C17.1167 3.31233 18.175 4.025 19.075 4.925C19.975 5.825 20.6873 6.88333 21.212 8.1C21.7373 9.31667 22 10.6167 22 12C22 13.3833 21.7373 14.6833 21.212 15.9C20.6873 17.1167 19.975 18.175 19.075 19.075C18.175 19.975 17.1167 20.6873 15.9 21.212C14.6833 21.7373 13.3833 22 12 22ZM12 20C14.2167 20 16.1043 19.221 17.663 17.663C19.221 16.1043 20 14.2167 20 12C20 9.78333 19.221 7.89567 17.663 6.337C16.1043 4.779 14.2167 4 12 4C9.78333 4 7.896 4.779 6.338 6.337C4.77933 7.89567 4 9.78333 4 12C4 14.2167 4.77933 16.1043 6.338 17.663C7.896 19.221 9.78333 20 12 20Z" fill="#3CBC81"></path>
  </symbol>
  <symbol fill="none" xmlns="http://www.w3.org/2000/svg" viewBox="0 0 24 24" id="error">
    <path d="M11 15H13V17H11V15ZM11 7H13V13H11V7ZM11.99 2C6.47 2 2 6.48 2 12C2 17.52 6.47 22 11.99 22C17.52 22 22 17.52 22 12C22 6.48 17.52 2 11.99 2ZM12 20C7.58 20 4 16.42 4 12C4 7.58 7.58 4 12 4C16.42 4 20 7.58 20 12C20 16.42 16.42 20 12 20Z" fill="#E74A3B"></path>
  </symbol>
</svg>