<svg width="184" height="132" viewBox="0 0 184 132" fill="none" xmlns="http://www.w3.org/2000/svg">
<path d="M113.964 129.789H111.813L112.556 127.77C113.87 124.204 115.151 118.407 114.719 112.706C114.287 107.02 112.183 101.657 106.972 98.4872C105.544 97.6181 103.165 97.186 99.7859 97.2062C96.4624 97.226 92.4205 97.6767 87.8558 98.3501C84.6641 98.8209 81.2114 99.4025 77.6007 100.011C70.9861 101.125 63.8414 102.329 56.8003 103.104C45.8914 104.305 34.8839 104.53 25.8608 101.777C16.7284 98.9909 9.60077 93.1339 6.72291 82.3382C1.22504 61.7139 1.40062 44.1429 5.36802 31.5657C9.32465 19.0226 17.2116 11.1189 27.2382 10.8027C30.8808 10.6879 38.3688 9.71008 48.2107 8.42489C50.4387 8.13394 52.7874 7.82725 55.2394 7.51125C68.4521 5.80846 84.5278 3.85655 100.467 2.7291C116.39 1.60276 132.254 1.293 145.024 2.90125C151.407 3.70518 157.089 4.99665 161.643 6.94689C166.189 8.8934 169.757 11.5601 171.675 15.2005C178.583 28.3131 182.116 44.1598 182.455 58.2975C182.625 65.3718 181.996 72.0619 180.565 77.8018C179.139 83.5226 176.889 88.4086 173.733 91.7585C168.733 97.0663 160.947 99.7312 153.491 100.977C146.617 102.125 139.795 102.105 135.167 101.695C133.533 106.421 130.799 112.95 127.438 118.49C125.619 121.488 123.577 124.262 121.377 126.304C119.197 128.328 116.689 129.789 113.964 129.789Z" fill="white" stroke="#E3F3FF" stroke-width="3"/>
</svg>
