<svg width="0" height="0" class="hidden">
  <symbol fill="none" xmlns="http://www.w3.org/2000/svg" viewBox="0 0 19 18" id="login">
    <path d="M11.75 2.25006H12.65C13.9101 2.25006 14.5402 2.25006 15.0215 2.4953C15.4448 2.71101 15.789 3.05522 16.0048 3.47858C16.25 3.95988 16.25 4.58995 16.25 5.85006V12.1501C16.25 13.4102 16.25 14.0402 16.0048 14.5215C15.789 14.9449 15.4448 15.2891 15.0215 15.5048C14.5402 15.7501 13.9101 15.7501 12.65 15.7501H11.75M8 5.25006L11.75 9.00006M11.75 9.00006L8 12.7501M11.75 9.00006L2.75 9.00006" stroke="" stroke-width="1.5" stroke-linecap="round" stroke-linejoin="round"></path>
  </symbol>
  <symbol xmlns="http://www.w3.org/2000/svg" viewBox="0 0 50 50" id="arrow-next">
    <g clip-path="url(#clip0_182_6723)">
      <path d="M33.865 23.1097L35.7445 24.3877L0 24.3887L0 25.3887L35.5205 25.3877L33.75 26.4052L34.248 27.2722L38.3225 24.9312L34.4275 22.2827L33.865 23.1097Z" ></path>
    </g>
  </symbol>
  <symbol xmlns="http://www.w3.org/2000/svg" viewBox="0 0 62 61" id="arrow-prev">
    <path d="M15.1847 32.5346L12.8917 30.9754L56.5 30.9742V29.7542L13.165 29.7554L15.325 28.514L14.7174 27.4563L9.74654 30.3123L14.4984 33.5435L15.1847 32.5346Z" ></path>
  </symbol>
  <symbol fill="" xmlns="http://www.w3.org/2000/svg" viewBox="0 0 14 14" id="star">
    <path d="M10.8241 14C10.6578 14 10.4923 13.9466 10.3498 13.8403L7.00009 11.3293L3.65039 13.8403C3.51161 13.9447 3.34483 14.0005 3.17386 13.9999C3.00289 13.9993 2.83648 13.9422 2.69839 13.8369C2.56018 13.7321 2.45708 13.5845 2.40378 13.4149C2.35048 13.2454 2.34969 13.0626 2.40151 12.8925L3.6508 8.67793L0.331167 6.23275C0.193589 6.12662 0.0914162 5.97796 0.0390997 5.8078C-0.0132167 5.63764 -0.0130282 5.45459 0.0396388 5.28455C0.0927213 5.11492 0.195461 4.96702 0.333337 4.86175C0.471213 4.75648 0.637253 4.69916 0.807989 4.6979L4.91945 4.69144L6.22844 0.58142C6.28246 0.412106 6.38607 0.264848 6.5246 0.160499C6.66312 0.0561503 6.82954 0 7.00029 0C7.17104 0 7.33746 0.0561503 7.47599 0.160499C7.61451 0.264848 7.71812 0.412106 7.77214 0.58142L9.0589 4.69144L13.1914 4.6979C13.3623 4.69891 13.5286 4.75619 13.6666 4.86162C13.8046 4.96705 13.9073 5.11526 13.9602 5.2852C14.013 5.45513 14.0133 5.63815 13.9609 5.80825C13.9086 5.97835 13.8063 6.12689 13.6686 6.23275L10.349 8.67793L11.5982 12.8925C11.6502 13.0625 11.6495 13.2453 11.5963 13.4149C11.543 13.5844 11.44 13.7321 11.3018 13.8369C11.1633 13.9431 10.9959 14.0002 10.8241 14V14Z" fill=""></path>
  </symbol>
  <symbol fill="none" xmlns="http://www.w3.org/2000/svg" viewBox="0 0 24 24" id="success">
    <path d="M10.6 13.8L8.425 11.625C8.24167 11.4417 8.01267 11.3543 7.738 11.363C7.46267 11.371 7.23333 11.4667 7.05 11.65C6.86667 11.8333 6.775 12.0667 6.775 12.35C6.775 12.6333 6.86667 12.8667 7.05 13.05L9.9 15.9C10.0833 16.0833 10.3167 16.175 10.6 16.175C10.8833 16.175 11.1167 16.0833 11.3 15.9L16.975 10.225C17.1583 10.0417 17.246 9.81233 17.238 9.537C17.2293 9.26233 17.1333 9.03333 16.95 8.85C16.7667 8.66667 16.5333 8.575 16.25 8.575C15.9667 8.575 15.7333 8.66667 15.55 8.85L10.6 13.8ZM12 22C10.6167 22 9.31667 21.7373 8.1 21.212C6.88333 20.6873 5.825 19.975 4.925 19.075C4.025 18.175 3.31267 17.1167 2.788 15.9C2.26267 14.6833 2 13.3833 2 12C2 10.6167 2.26267 9.31667 2.788 8.1C3.31267 6.88333 4.025 5.825 4.925 4.925C5.825 4.025 6.88333 3.31233 8.1 2.787C9.31667 2.26233 10.6167 2 12 2C13.3833 2 14.6833 2.26233 15.9 2.787C17.1167 3.31233 18.175 4.025 19.075 4.925C19.975 5.825 20.6873 6.88333 21.212 8.1C21.7373 9.31667 22 10.6167 22 12C22 13.3833 21.7373 14.6833 21.212 15.9C20.6873 17.1167 19.975 18.175 19.075 19.075C18.175 19.975 17.1167 20.6873 15.9 21.212C14.6833 21.7373 13.3833 22 12 22ZM12 20C14.2167 20 16.1043 19.221 17.663 17.663C19.221 16.1043 20 14.2167 20 12C20 9.78333 19.221 7.89567 17.663 6.337C16.1043 4.779 14.2167 4 12 4C9.78333 4 7.896 4.779 6.338 6.337C4.77933 7.89567 4 9.78333 4 12C4 14.2167 4.77933 16.1043 6.338 17.663C7.896 19.221 9.78333 20 12 20Z" fill="#3CBC81"></path>
  </symbol>
  <symbol fill="none" xmlns="http://www.w3.org/2000/svg" viewBox="0 0 24 24" id="error">
    <path d="M11 15H13V17H11V15ZM11 7H13V13H11V7ZM11.99 2C6.47 2 2 6.48 2 12C2 17.52 6.47 22 11.99 22C17.52 22 22 17.52 22 12C22 6.48 17.52 2 11.99 2ZM12 20C7.58 20 4 16.42 4 12C4 7.58 7.58 4 12 4C16.42 4 20 7.58 20 12C20 16.42 16.42 20 12 20Z" fill="#E74A3B"></path>
  </symbol>
  <symbol fill="none" xmlns="http://www.w3.org/2000/svg" viewBox="0 0 181 130" id="bubble">
    <path d="M105.475 96.3448C116.824 103.255 114.275 119.615 111.582 126.931C120.149 126.931 128.367 108.428 131.404 99.1768C140.204 100.168 160.095 99.7149 169.265 89.9727C180.726 77.7949 180.35 41.6864 167.01 16.3396C153.67 -9.00713 44.3162 12.2332 26.3724 12.7996C8.42873 13.366 -3.12665 41.12 7.58321 81.335C18.2931 121.55 91.2893 87.7071 105.475 96.3448Z" fill="white"></path>
    <path d="M111.582 128.431H109.431L110.174 126.413C111.465 122.906 112.723 117.205 112.298 111.599C111.875 106.008 109.808 100.739 104.695 97.626C103.297 96.7748 100.965 96.3494 97.6442 96.3693C94.379 96.3888 90.4071 96.8321 85.92 97.4946C82.7835 97.9577 79.3899 98.53 75.8406 99.1284C69.3376 100.225 62.3124 101.409 55.39 102.172C44.6651 103.354 33.8396 103.576 24.9641 100.866C15.979 98.1221 8.96516 92.3529 6.13373 81.721C0.728283 61.4238 0.900286 44.1294 4.80209 31.7482C8.69299 19.4016 16.4524 11.612 26.3251 11.3003C29.9045 11.1874 37.2637 10.2254 46.9387 8.96084C49.1292 8.67453 51.4383 8.3727 53.8492 8.06171C66.838 6.38615 82.6418 4.46539 98.3115 3.35592C113.965 2.24757 129.562 1.94261 142.118 3.52547C148.395 4.3167 153.983 5.58793 158.464 7.50832C162.935 9.42501 166.448 12.0522 168.337 15.641C175.13 28.5475 178.604 44.1441 178.938 58.0586C179.104 65.0213 178.486 71.6064 177.079 77.2569C175.677 82.8882 173.463 87.7002 170.357 91.0008C165.436 96.2296 157.775 98.8532 150.443 100.079C143.693 101.208 136.995 101.19 132.444 100.788C130.836 105.438 128.151 111.855 124.85 117.301C123.061 120.251 121.052 122.983 118.887 124.994C116.742 126.988 114.271 128.431 111.582 128.431Z" stroke="#3E85F3" stroke-opacity="0.2" stroke-width="3"></path>
  </symbol>
  <symbol fill="none" xmlns="http://www.w3.org/2000/svg" viewBox="0 0 184 132" id="bubble-login">
    <path d="M113.964 129.789H111.813L112.556 127.77C113.87 124.204 115.151 118.407 114.719 112.706C114.287 107.02 112.183 101.657 106.972 98.4872C105.544 97.6181 103.165 97.186 99.7859 97.2062C96.4624 97.226 92.4205 97.6767 87.8558 98.3501C84.6641 98.8209 81.2114 99.4025 77.6007 100.011C70.9861 101.125 63.8414 102.329 56.8003 103.104C45.8914 104.305 34.8839 104.53 25.8608 101.777C16.7284 98.9909 9.60077 93.1339 6.72291 82.3382C1.22504 61.7139 1.40062 44.1429 5.36802 31.5657C9.32465 19.0226 17.2116 11.1189 27.2382 10.8027C30.8808 10.6879 38.3688 9.71008 48.2107 8.42489C50.4387 8.13394 52.7874 7.82725 55.2394 7.51125C68.4521 5.80846 84.5278 3.85655 100.467 2.7291C116.39 1.60276 132.254 1.293 145.024 2.90125C151.407 3.70518 157.089 4.99665 161.643 6.94689C166.189 8.8934 169.757 11.5601 171.675 15.2005C178.583 28.3131 182.116 44.1598 182.455 58.2975C182.625 65.3718 181.996 72.0619 180.565 77.8018C179.139 83.5226 176.889 88.4086 173.733 91.7585C168.733 97.0663 160.947 99.7312 153.491 100.977C146.617 102.125 139.795 102.105 135.167 101.695C133.533 106.421 130.799 112.95 127.438 118.49C125.619 121.488 123.577 124.262 121.377 126.304C119.197 128.328 116.689 129.789 113.964 129.789Z" fill="white" stroke="#E3F3FF" stroke-width="3"></path>
  </symbol>
  <symbol fill="" xmlns="http://www.w3.org/2000/svg" viewBox="0 0 32 32" id="moon">
    <path d="M27.6561 17.3933C26.7525 17.6333 25.8216 17.7547 24.8868 17.7546C22.0401 17.7546 19.3668 16.648 17.3588 14.64C16.0402 13.3138 15.0922 11.6651 14.6093 9.85837C14.1264 8.05161 14.1256 6.14985 14.6068 4.34264C14.6668 4.11669 14.6665 3.8789 14.6056 3.65314C14.5448 3.42738 14.4257 3.22157 14.2602 3.05638C14.0948 2.89119 13.8888 2.77241 13.6629 2.71196C13.4371 2.65151 13.1993 2.65152 12.9734 2.71198C10.711 3.31489 8.64683 4.50214 6.98809 6.15464C1.79075 11.352 1.79075 19.812 6.98809 25.012C8.22346 26.2542 9.69293 27.2391 11.3115 27.9097C12.93 28.5803 14.6655 28.9232 16.4174 28.9186C18.1689 28.9236 19.904 28.5809 21.5221 27.9105C23.1402 27.2402 24.6092 26.2554 25.8441 25.0133C27.4978 23.3542 28.6856 21.289 29.2881 19.0253C29.3479 18.7994 29.3474 18.5618 29.2866 18.3362C29.2259 18.1106 29.1069 17.9049 28.9417 17.7397C28.7765 17.5745 28.5708 17.4555 28.3452 17.3947C28.1196 17.334 27.8819 17.3335 27.6561 17.3933ZM23.9601 23.128C22.972 24.1214 21.7968 24.9091 20.5023 25.4453C19.2079 25.9815 17.8199 26.2557 16.4188 26.252C15.0171 26.2555 13.6287 25.981 12.3339 25.4446C11.039 24.9081 9.86327 24.1203 8.87475 23.1266C4.71742 18.968 4.71742 12.2 8.87475 8.04131C9.67809 7.23887 10.6055 6.57119 11.6214 6.06398C11.4727 7.98272 11.74 9.91095 12.4051 11.7169C13.0701 13.5228 14.1172 15.1639 15.4748 16.528C16.8358 17.8898 18.4764 18.9398 20.2831 19.6053C22.0898 20.2709 24.0195 20.5361 25.9388 20.3826C25.4288 21.3968 24.7609 22.3235 23.9601 23.128Z" fill=""></path>
  </symbol>
  <symbol fill="" xmlns="http://www.w3.org/2000/svg" viewBox="0 0 32 32" id="sun">
    <path d="M9.32407 16C9.32407 19.6814 12.3187 22.676 16.0001 22.676C19.6814 22.676 22.6761 19.6814 22.6761 16C22.6761 12.3187 19.6814 9.32402 16.0001 9.32402C12.3187 9.32402 9.32407 12.3187 9.32407 16ZM16.0001 11.9907C18.2107 11.9907 20.0094 13.7894 20.0094 16C20.0094 18.2107 18.2107 20.0094 16.0001 20.0094C13.7894 20.0094 11.9907 18.2107 11.9907 16C11.9907 13.7894 13.7894 11.9907 16.0001 11.9907ZM14.6641 25.3334H17.3307V29.3334H14.6641V25.3334ZM14.6641 2.66669H17.3307V6.66669H14.6641V2.66669ZM2.66406 14.6667H6.66407V17.3334H2.66406V14.6667ZM25.3307 14.6667H29.3307V17.3334H25.3307V14.6667ZM5.6254 24.484L8.45207 21.6547L10.3387 23.54L7.51207 26.3694L5.6254 24.484ZM21.6534 8.45869L24.4827 5.62936L26.3681 7.51469L23.5387 10.344L21.6534 8.45869ZM8.45607 10.3454L5.62673 7.51602L7.5134 5.63069L10.3401 8.46002L8.45607 10.3454ZM26.3681 24.4854L24.4827 26.3707L21.6534 23.5414L23.5387 21.656L26.3681 24.4854Z" fill=""></path>
  </symbol>
  <symbol fill="none" xmlns="http://www.w3.org/2000/svg" viewBox="0 0 20 20" id="log-out">
    <path d="M13.3333 14.1667L17.5 10M17.5 10L13.3333 5.83333M17.5 10H7.5M7.5 2.5H6.5C5.09987 2.5 4.3998 2.5 3.86502 2.77248C3.39462 3.01217 3.01217 3.39462 2.77248 3.86502C2.5 4.3998 2.5 5.09987 2.5 6.5V13.5C2.5 14.9001 2.5 15.6002 2.77248 16.135C3.01217 16.6054 3.39462 16.9878 3.86502 17.2275C4.3998 17.5 5.09987 17.5 6.5 17.5H7.5" stroke="white" stroke-width="2" stroke-linecap="round" stroke-linejoin="round"></path>
  </symbol>

</svg>